<svg aria-hidden="true" style="position: absolute; width: 0; height: 0; overflow: hidden;" version="1.1" xmlns="http://www.w3.org/2000/svg" xmlns:xlink="http://www.w3.org/1999/xlink">
  <defs>
    <symbol id="icon-clock" viewBox="0 0 26 32">
      <path d="M23.664 2.689h1.614c0.302 0 0.538-0.235 0.538-0.538v-1.076c0-0.303-0.235-0.538-0.538-0.538h-24.74c-0.303 0-0.538 0.235-0.538 0.538v1.076c0 0.303 0.235 0.538 0.538 0.538h1.613c0 6.219 2.975 10.723 6.269 12.908-3.294 2.185-6.269 6.689-6.269 12.908h-1.613c-0.303 0-0.538 0.235-0.538 0.538v1.076c0 0.302 0.235 0.538 0.538 0.538h24.74c0.302 0 0.538-0.235 0.538-0.538v-1.076c0-0.302-0.235-0.538-0.538-0.538h-1.614c0-6.219-2.975-10.723-6.269-12.908 3.294-2.185 6.269-6.689 6.269-12.908zM21.513 2.689c0 2.454-0.555 4.622-1.429 6.454h-14.353c-0.874-1.832-1.429-4-1.429-6.454h17.21zM20.555 23.126h-15.294c1.244-3.244 3.479-5.546 5.714-6.454h3.866c2.235 0.908 4.471 3.21 5.714 6.454z"></path>
    </symbol>
    <symbol id="icon-heart" viewBox="0 0 34 32">
      <path d="M17.067 30.172c0.305 0 0.61-0.114 0.838-0.343l11.867-11.428c0.171-0.171 4.362-4 4.362-8.571 0-5.581-3.41-8.914-9.105-8.914-3.333 0-6.457 2.629-7.962 4.114-1.505-1.486-4.629-4.114-7.962-4.114-5.695 0-9.105 3.333-9.105 8.914 0 4.571 4.191 8.4 4.343 8.533l11.886 11.467c0.229 0.229 0.533 0.343 0.838 0.343z"></path>
    </symbol>
    <symbol id="icon-row" viewBox="0 0 21 32">
      <path d="M19.042 18.067l-17.21-17.21c-0.202-0.219-0.471-0.319-0.756-0.319-0.134 0-0.286 0.034-0.403 0.084-0.403 0.168-0.672 0.555-0.672 0.992v25.277c0 0.437 0.269 0.824 0.672 0.992 0.118 0.050 0.269 0.084 0.403 0.084 0.286 0 0.555-0.118 0.756-0.319l5.244-5.244 3.21 7.597c0.235 0.538 0.857 0.807 1.412 0.571l2.975-1.261c0.538-0.235 0.807-0.857 0.571-1.412l-3.378-8h6.42c0.437 0 0.824-0.269 0.992-0.672 0.168-0.387 0.084-0.857-0.235-1.16z"></path>
    </symbol>
    <symbol id="icon-wave" viewBox="0 0 41 32">
      <path d="M21.673 12.898l2.674 1.245 3.98-1.184v-2.775c0-4.714-3.98-8.49-8.735-8.49-4.735 0-8.735 3.755-8.735 8.429v12.653c0 1.163-0.939 2.082-2.082 2.082s-2.082-0.918-2.082-2.082v-5.347h-6.694c0 5.367 0 5.429 0 5.429 0 4.837 3.918 8.755 8.755 8.755 4.796 0 8.755-3.857 8.755-8.633v-12.49c0-1.143 0.939-2.082 2.082-2.082s2.082 0.939 2.082 2.082v2.408zM32.49 17.429v5.612c0 1.143-0.939 2.061-2.082 2.061s-2.082-0.918-2.082-2.061v-5.51l-3.98 1.184-2.674-1.245v5.469c0 4.796 3.939 8.674 8.755 8.674 4.837 0 8.755-3.918 8.755-8.755 0 0 0-0.061 0-5.429h-6.694z"></path>
    </symbol>
    <symbol id="icon-tick" viewBox="0 0 45 32">
      <path d="M42.17 0.638c-0.834-0.851-2.188-0.851-3.022 0l-25.606 26.102-9.843-10.033c-0.835-0.851-2.188-0.851-3.023 0s-0.835 2.23 0 3.081l11.354 11.574c0.834 0.851 2.189 0.85 3.023 0l27.117-27.643c0.835-0.851 0.835-2.23 0-3.081z"></path>
    </symbol>
    <symbol id="icon-menu" viewBox="0 0 32 32">
      <path d="M4.799 8.001c0-0.424 0.169-0.831 0.469-1.131s0.707-0.469 1.131-0.469h19.2c0.424 0 0.831 0.169 1.131 0.469s0.469 0.707 0.469 1.131-0.169 0.831-0.469 1.131c-0.3 0.3-0.707 0.469-1.131 0.469h-19.2c-0.424 0-0.831-0.169-1.131-0.469s-0.469-0.707-0.469-1.131z"></path>
      <path d="M4.799 16.001c0-0.424 0.169-0.831 0.469-1.131s0.707-0.469 1.131-0.469h19.2c0.424 0 0.831 0.169 1.131 0.469s0.469 0.707 0.469 1.131c0 0.424-0.169 0.831-0.469 1.131s-0.707 0.469-1.131 0.469h-19.2c-0.424 0-0.831-0.169-1.131-0.469s-0.469-0.707-0.469-1.131z"></path>
      <path d="M4.799 24.001c0-0.424 0.169-0.831 0.469-1.131s0.707-0.469 1.131-0.469h19.2c0.424 0 0.831 0.169 1.131 0.469s0.469 0.707 0.469 1.131c0 0.424-0.169 0.831-0.469 1.131s-0.707 0.469-1.131 0.469h-19.2c-0.424 0-0.831-0.169-1.131-0.469s-0.469-0.707-0.469-1.131z"></path>
    </symbol>
    <symbol id="icon-close" viewBox="0 0 32 32">
      <path d="M32 3.223 28.777 0 16 12.777 3.223 0 0 3.223 12.777 16 0 28.777 3.223 32 16 19.223 28.777 32 32 28.777 19.223 16 32 3.223z"/>
    </symbol>
    <symbol id="icon-dollar" viewBox="0 0 17 32">
      <path d="M7.355 28.397h2.145l0.018-2.1c3.936-0.3 6.218-2.391 6.227-5.546-0.009-3.1-2.345-4.745-5.582-5.473l-0.536-0.127 0.036-4.545c1.209 0.282 1.945 1.055 2.055 2.2h3.773c-0.045-3.009-2.291-5.164-5.791-5.545l0.018-2.136h-2.145l-0.018 2.118c-3.555 0.345-6.064 2.491-6.045 5.591-0.009 2.745 1.927 4.318 5.073 5.073l0.873 0.218-0.045 4.809c-1.482-0.282-2.482-1.191-2.582-2.709h-3.809c0.091 3.673 2.5 5.727 6.355 6.064l-0.018 2.109zM9.555 22.933l0.036-4.245c1.409 0.445 2.173 1.018 2.182 2.055-0.009 1.1-0.845 1.918-2.218 2.191zM7.482 14.597c-1.136-0.391-1.955-0.982-1.936-2.027 0-0.973 0.691-1.727 1.973-1.991l-0.036 4.018z"></path>
    </symbol>
    <symbol id="icon-stars" viewBox="0 0 180 32">
      <path d="M30.814 11.093c-0.097-0.286-0.276-0.537-0.514-0.723s-0.526-0.297-0.827-0.321l-8.807-0.7-3.811-8.436c-0.121-0.272-0.319-0.502-0.568-0.664s-0.541-0.248-0.838-0.248c-0.298-0-0.589 0.086-0.839 0.248s-0.447 0.392-0.569 0.664l-3.811 8.438-8.807 0.7c-0.296 0.023-0.579 0.132-0.815 0.312s-0.415 0.424-0.516 0.703c-0.101 0.279-0.119 0.581-0.053 0.871s0.215 0.553 0.427 0.761l6.508 6.345-2.302 9.967c-0.070 0.302-0.048 0.617 0.064 0.906s0.308 0.537 0.563 0.713c0.255 0.176 0.557 0.271 0.866 0.274s0.613-0.088 0.87-0.261l8.412-5.608 8.412 5.608c0.263 0.175 0.573 0.265 0.889 0.258s0.622-0.11 0.877-0.296c0.255-0.186 0.447-0.446 0.55-0.744s0.113-0.621 0.027-0.925l-2.825-9.887 7.007-6.306c0.459-0.414 0.627-1.060 0.429-1.645z"></path>
      <path d="M67.891 11.093c-0.097-0.286-0.276-0.537-0.514-0.723s-0.526-0.297-0.827-0.321l-8.807-0.7-3.811-8.436c-0.121-0.272-0.319-0.502-0.568-0.664s-0.541-0.248-0.838-0.248c-0.298-0-0.589 0.086-0.839 0.248s-0.447 0.392-0.569 0.664l-3.811 8.438-8.807 0.7c-0.296 0.023-0.579 0.132-0.815 0.312s-0.415 0.424-0.516 0.703c-0.101 0.279-0.119 0.581-0.053 0.871s0.215 0.553 0.427 0.761l6.508 6.345-2.302 9.967c-0.070 0.302-0.047 0.617 0.064 0.906s0.308 0.537 0.563 0.713c0.255 0.176 0.557 0.271 0.866 0.274s0.613-0.088 0.87-0.261l8.411-5.608 8.412 5.608c0.263 0.175 0.573 0.265 0.889 0.258s0.622-0.11 0.877-0.296c0.255-0.186 0.447-0.446 0.551-0.744s0.112-0.621 0.027-0.925l-2.825-9.887 7.007-6.306c0.459-0.414 0.627-1.060 0.429-1.645z"></path>
      <path d="M104.962 11.093c-0.097-0.286-0.276-0.537-0.514-0.723s-0.526-0.297-0.827-0.321l-8.807-0.7-3.811-8.436c-0.121-0.272-0.319-0.502-0.568-0.664s-0.541-0.248-0.838-0.248-0.589 0.086-0.839 0.248c-0.25 0.162-0.448 0.392-0.569 0.664l-3.811 8.438-8.807 0.7c-0.296 0.023-0.579 0.132-0.815 0.312s-0.415 0.424-0.516 0.703c-0.101 0.279-0.119 0.581-0.053 0.871s0.215 0.553 0.427 0.761l6.508 6.345-2.302 9.967c-0.070 0.302-0.047 0.617 0.064 0.906s0.308 0.537 0.563 0.713c0.255 0.176 0.557 0.271 0.866 0.274s0.613-0.088 0.87-0.261l8.412-5.608 8.411 5.608c0.263 0.175 0.573 0.265 0.889 0.258s0.622-0.11 0.877-0.296c0.255-0.186 0.447-0.446 0.55-0.744s0.112-0.621 0.027-0.925l-2.826-9.887 7.007-6.306c0.459-0.414 0.627-1.060 0.429-1.645z"></path>
      <path d="M142.041 11.093c-0.097-0.286-0.276-0.537-0.514-0.723s-0.526-0.297-0.827-0.321l-8.807-0.7-3.811-8.436c-0.121-0.272-0.319-0.502-0.568-0.664s-0.541-0.248-0.838-0.248c-0.298-0-0.589 0.086-0.839 0.248s-0.448 0.392-0.569 0.664l-3.811 8.438-8.807 0.7c-0.296 0.023-0.579 0.132-0.815 0.312s-0.415 0.424-0.516 0.703-0.119 0.581-0.053 0.871c0.066 0.289 0.215 0.553 0.427 0.761l6.508 6.345-2.302 9.967c-0.070 0.302-0.047 0.617 0.064 0.906s0.308 0.537 0.563 0.713c0.255 0.176 0.557 0.271 0.866 0.274s0.613-0.088 0.87-0.261l8.412-5.608 8.411 5.608c0.263 0.175 0.573 0.265 0.889 0.258s0.622-0.11 0.877-0.296c0.255-0.186 0.447-0.446 0.551-0.744s0.112-0.621 0.027-0.925l-2.826-9.887 7.007-6.306c0.459-0.414 0.627-1.060 0.429-1.645z"></path>
      <path d="M155.281 19.039l-2.302 9.967c-0.071 0.302-0.050 0.618 0.061 0.908s0.307 0.539 0.562 0.715 0.557 0.272 0.868 0.274c0.31 0.002 0.614-0.090 0.871-0.263l8.411-5.608 8.411 5.608c0.264 0.175 0.574 0.265 0.889 0.258 0.317-0.007 0.623-0.11 0.877-0.297 0.256-0.186 0.448-0.446 0.551-0.744s0.113-0.621 0.027-0.925l-2.826-9.887 7.008-6.306c0.224-0.202 0.384-0.466 0.46-0.758 0.077-0.292 0.066-0.6-0.030-0.886-0.098-0.286-0.276-0.537-0.514-0.723-0.239-0.186-0.527-0.297-0.827-0.321l-8.808-0.701-3.81-8.436c-0.121-0.272-0.319-0.502-0.569-0.664s-0.541-0.248-0.839-0.248c-0.298 0-0.589 0.086-0.839 0.248s-0.447 0.393-0.569 0.664l-3.811 8.436-8.807 0.7c-0.296 0.023-0.579 0.132-0.815 0.312s-0.415 0.424-0.516 0.703-0.119 0.581-0.053 0.871c0.067 0.289 0.215 0.553 0.427 0.761l6.51 6.345zM159.688 12.356c0.276-0.022 0.54-0.117 0.767-0.277s0.405-0.376 0.519-0.629l2.779-6.15 2.779 6.15c0.113 0.252 0.293 0.47 0.519 0.629s0.491 0.255 0.767 0.277l6.137 0.487-5.054 4.548c-0.438 0.395-0.613 1.004-0.451 1.573l1.935 6.774-5.772-3.848c-0.253-0.17-0.551-0.261-0.857-0.261s-0.603 0.091-0.857 0.261l-6.031 4.021 1.622-7.023c0.059-0.258 0.052-0.527-0.023-0.782s-0.214-0.485-0.403-0.67l-4.693-4.576 6.318-0.504z"></path>
    </symbol>
  </defs>
</svg>